HIERARCHY
ROOT Hips
{
	OFFSET 0.000000 0.000000 0.000000
	CHANNELS 6 Xposition Yposition Zposition Zrotation Yrotation Xrotation 
	JOINT LowerBack
	{
		OFFSET 0.000000 0.000000 0.000000
		CHANNELS 3 Zrotation Yrotation Xrotation
		JOINT Spine
		{
			OFFSET 0.028270 2.035590 -0.193380
			CHANNELS 3 Zrotation Yrotation Xrotation
			JOINT Spine1
			{
				OFFSET 0.056720 2.048850 -0.042750
				CHANNELS 3 Zrotation Yrotation Xrotation
				JOINT Neck
				{
					OFFSET 0.000000 0.000000 0.000000
					CHANNELS 3 Zrotation Yrotation Xrotation
					JOINT Neck1
					{
						OFFSET -0.054170 1.746240 0.172020
						CHANNELS 3 Zrotation Yrotation Xrotation
						JOINT Head
						{
							OFFSET 0.104070 1.761360 -0.123970
							CHANNELS 3 Zrotation Yrotation Xrotation
							End Site
							{
								OFFSET 0.000000 0.000000 0.000000
							}
						}
					}
				}
				JOINT LeftShoulder
				{
					OFFSET 0.000000 0.000000 0.000000
					CHANNELS 3 Zrotation Yrotation Xrotation
					JOINT LeftArm
					{
						OFFSET 3.362410 1.200890 -0.311210
						CHANNELS 3 Zrotation Yrotation Xrotation
						JOINT LeftForeArm
						{
							OFFSET 4.983000 -0.000000 -0.000000
							CHANNELS 3 Zrotation Yrotation Xrotation
							JOINT LeftHand
							{
								OFFSET 3.483560 -0.000000 -0.000000
								CHANNELS 3 Zrotation Yrotation Xrotation
								JOINT LeftFingerBase
								{
									OFFSET 0.000000 0.000000 0.000000
									CHANNELS 3 Zrotation Yrotation Xrotation
									JOINT LeftHandIndex1
									{
										OFFSET 0.715260 -0.000000 -0.000000
										CHANNELS 3 Zrotation Yrotation Xrotation
										End Site
										{
											OFFSET 0.000000 0.000000 0.000000
										}
									}
								}
								JOINT LThumb
								{
									OFFSET 0.000000 0.000000 0.000000
									CHANNELS 3 Zrotation Yrotation Xrotation
									End Site
									{
										OFFSET 0.000000 0.000000 0.000000
									}
								}
							}
						}
					}
				}
				JOINT RightShoulder
				{
					OFFSET 0.000000 0.000000 0.000000
					CHANNELS 3 Zrotation Yrotation Xrotation
					JOINT RightArm
					{
						OFFSET -3.136600 1.374050 -0.404650
						CHANNELS 3 Zrotation Yrotation Xrotation
						JOINT RightForeArm
						{
							OFFSET -5.241900 -0.000000 -0.000000
							CHANNELS 3 Zrotation Yrotation Xrotation
							JOINT RightHand
							{
								OFFSET -3.444170 -0.000000 -0.000000
								CHANNELS 3 Zrotation Yrotation Xrotation
								JOINT RightFingerBase
								{
									OFFSET 0.000000 0.000000 0.000000
									CHANNELS 3 Zrotation Yrotation Xrotation
									JOINT RightHandIndex1
									{
										OFFSET -0.622530 -0.000000 -0.000000
										CHANNELS 3 Zrotation Yrotation Xrotation
										End Site
										{
											OFFSET 0.000000 0.000000 0.000000
										}
									}
								}
								JOINT RThumb
								{
									OFFSET 0.000000 0.000000 0.000000
									CHANNELS 3 Zrotation Yrotation Xrotation
									End Site
									{
										OFFSET 0.000000 0.000000 0.000000
									}
								}
							}
						}
					}
				}
			}
		}
	}
}
}
MOTION
Frames: 17
Frame Time: 0.008333
1.367694 17.190600 2.196994 -1.412174 -69.755665 9.297729 -3.611997 -1.306248 -6.180949 -1.383514 -1.189117 -3.632891 -5.887261 -1.243423 1.769681 12.191567 -14.833756 -6.697782 -2.214768 -0.187732 0.276427 0.000000 0.000000 0.000000 0.394943 11.200883 -1.377083 -62.846302 -3.132770 -7.764513 -0.716898 -70.034365 -0.064967 19.134045 -8.342865 -1.480613 -0.252722 0.328686 0.000000 0.000000 0.000000 0.000000 0.000000 0.000000 0.000000 11.526051 -11.401108 -0.241970 65.795589 -4.777352 -18.163206 1.887432 45.232452 0.000182 -15.262972 13.613634 -1.874416 0.172572 -0.167604 0.000000 0.000000 0.000000 0.000000 0.000000 0.000000 0.000000 
1.384021 17.189205 2.225971 -2.066941 -69.307564 9.836301 -3.295353 -1.389372 -6.036889 -1.311841 -1.293843 -3.598061 -5.890580 -1.342222 1.787221 12.260093 -15.129210 -6.760143 -2.230859 -0.188048 0.260016 0.000000 0.000000 0.000000 0.380752 10.955213 -1.401239 -63.249240 -3.557683 -7.522274 -0.744472 -69.522035 -0.065284 19.145254 -8.349290 -1.482430 -0.250582 0.328514 0.000000 0.000000 0.000000 0.000000 0.000000 0.000000 0.000000 11.727169 -11.828444 -0.207218 66.197212 -5.227011 -18.551767 1.953253 44.356554 0.002016 -15.048380 13.560223 -1.839952 0.172284 -0.161496 0.000000 0.000000 0.000000 0.000000 0.000000 0.000000 0.000000 
1.401655 17.188637 2.254116 -2.592782 -68.961690 10.351700 -2.985149 -1.483645 -5.940002 -1.238950 -1.409592 -3.573138 -5.885448 -1.453188 1.806768 12.316333 -15.435450 -6.849421 -2.244648 -0.187904 0.237535 0.000000 0.000000 0.000000 0.424533 10.708296 -1.415612 -63.700756 -3.963748 -7.368045 -0.771027 -69.033157 -0.065845 19.165054 -8.365150 -1.486648 -0.248526 0.329120 0.000000 0.000000 0.000000 0.000000 0.000000 0.000000 0.000000 11.911278 -12.258825 -0.173087 66.570420 -5.633763 -18.888838 2.005505 43.727775 0.003421 -14.840270 13.492712 -1.804879 0.172260 -0.156996 0.000000 0.000000 0.000000 0.000000 0.000000 0.000000 0.000000 
1.420889 17.189349 2.281944 -3.043777 -68.731115 10.896910 -2.662055 -1.585808 -5.890253 -1.161042 -1.534850 -3.557728 -5.873018 -1.574573 1.828993 12.361221 -15.750495 -6.969064 -2.255883 -0.187231 0.207998 0.000000 0.000000 0.000000 0.513598 10.474747 -1.419752 -64.190840 -4.357978 -7.296410 -0.796493 -68.576326 -0.066638 19.194789 -8.391368 -1.493663 -0.246610 0.330484 0.000000 0.000000 0.000000 0.000000 0.000000 0.000000 0.000000 12.078479 -12.687677 -0.138680 66.901675 -5.985704 -19.158795 2.044276 43.345897 0.004436 -14.649126 13.417799 -1.771401 0.172521 -0.154011 0.000000 0.000000 0.000000 0.000000 0.000000 0.000000 0.000000 
1.441599 17.191827 2.310371 -3.488679 -68.621304 11.553662 -2.296057 -1.692941 -5.902286 -1.072360 -1.669539 -3.556908 -5.854952 -1.706390 1.845569 12.392002 -16.046865 -7.111650 -2.266952 -0.186344 0.173590 0.000000 0.000000 0.000000 0.631196 10.225441 -1.411010 -64.701921 -4.686838 -7.326418 -0.819522 -68.197239 -0.067624 19.231662 -8.419557 -1.501575 -0.244739 0.332381 0.000000 0.000000 0.000000 0.000000 0.000000 0.000000 0.000000 12.225282 -13.084064 -0.100190 67.178676 -6.307524 -19.371548 2.069573 43.222980 0.005095 -14.473541 13.336119 -1.739418 0.172978 -0.152406 0.000000 0.000000 0.000000 0.000000 0.000000 0.000000 0.000000 
1.464466 17.196456 2.339758 -3.969315 -68.646780 12.350915 -1.870972 -1.800130 -5.960802 -0.969913 -1.810095 -3.566481 -5.832161 -1.844586 1.860466 12.411158 -16.332189 -7.283635 -2.275877 -0.184961 0.132196 0.000000 0.000000 0.000000 0.761945 9.989264 -1.389389 -65.219418 -4.983985 -7.437670 -0.840463 -67.887342 -0.068817 19.278188 -8.448117 -1.510486 -0.242998 0.334816 0.000000 0.000000 0.000000 0.000000 0.000000 0.000000 0.000000 12.348959 -13.454701 -0.057109 67.389213 -6.559352 -19.507822 2.083081 43.322197 0.005441 -14.321410 13.256183 -1.710930 0.173644 -0.152074 0.000000 0.000000 0.000000 0.000000 0.000000 0.000000 0.000000 
1.489628 17.203368 2.370736 -4.531027 -68.814350 13.341939 -1.368000 -1.903399 -6.069781 -0.850253 -1.954432 -3.587937 -5.805282 -1.986948 1.871634 12.418174 -16.594641 -7.483164 -2.282368 -0.183078 0.084155 0.000000 0.000000 0.000000 0.892268 9.763680 -1.353361 -65.725483 -5.238152 -7.626057 -0.858742 -67.663332 -0.070213 19.333279 -8.468257 -1.518792 -0.241377 0.337670 0.000000 0.000000 0.000000 0.000000 0.000000 0.000000 0.000000 12.442985 -13.786028 -0.007093 67.525083 -6.733730 -19.566727 2.086158 43.620211 0.005508 -14.191190 13.179612 -1.685838 0.174464 -0.152891 0.000000 0.000000 0.000000 0.000000 0.000000 0.000000 0.000000 
1.517581 17.212530 2.403514 -5.205513 -69.132705 14.559219 -0.778989 -1.997862 -6.225476 -0.712332 -2.098660 -3.621557 -5.774979 -2.129441 1.875697 12.413515 -16.822633 -7.706877 -2.285919 -0.180676 0.030033 0.000000 0.000000 0.000000 1.015586 9.538702 -1.301785 -66.203179 -5.435089 -7.890359 -0.873337 -67.539618 -0.071829 19.396675 -8.471457 -1.524798 -0.239845 0.340857 0.000000 0.000000 0.000000 0.000000 0.000000 0.000000 0.000000 12.500291 -14.064805 0.053038 67.584705 -6.821014 -19.553250 2.080191 44.086558 0.005321 -14.077679 13.107208 -1.663543 0.175348 -0.154752 0.000000 0.000000 0.000000 0.000000 0.000000 0.000000 0.000000 
1.548751 17.223642 2.438081 -6.018770 -69.608196 16.031517 -0.103141 -2.078809 -6.423329 -0.556583 -2.238492 -3.667061 -5.741422 -2.267624 1.871107 12.398136 -17.008656 -7.952281 -2.285341 -0.177661 -0.029954 0.000000 0.000000 0.000000 1.131340 9.311392 -1.234009 -66.637620 -5.571868 -8.222714 -0.883469 -67.519883 -0.073691 19.467778 -8.449342 -1.527101 -0.238403 0.344345 0.000000 0.000000 0.000000 0.000000 0.000000 0.000000 0.000000 12.513395 -14.282319 0.125786 67.570274 -6.808606 -19.469319 2.066593 44.687178 0.004896 -13.976141 13.038048 -1.643344 0.176230 -0.157575 0.000000 0.000000 0.000000 0.000000 0.000000 0.000000 0.000000 
1.583192 17.236212 2.474304 -6.995029 -70.243448 17.789675 0.654291 -2.141998 -6.658874 -0.384590 -2.369598 -3.723725 -5.704319 -2.397016 1.858562 12.374012 -17.149093 -8.217972 -2.278915 -0.173868 -0.095993 0.000000 0.000000 0.000000 1.244456 9.088385 -1.149815 -67.016901 -5.657929 -8.608203 -0.888845 -67.595169 -0.075826 19.546146 -8.396287 -1.524507 -0.237096 0.348155 0.000000 0.000000 0.000000 0.000000 0.000000 0.000000 0.000000 12.475930 -14.434313 0.212547 67.486742 -6.683821 -19.313115 2.046706 45.388298 0.004242 -13.884193 12.968994 -1.624447 0.177097 -0.161295 0.000000 0.000000 0.000000 0.000000 0.000000 0.000000 0.000000 
1.621286 17.249654 2.511594 -8.150655 -71.038154 19.846420 1.475593 -2.184009 -6.920160 -0.200664 -2.487170 -3.790302 -5.664171 -2.512771 1.834565 12.344058 -17.236168 -8.498388 -2.266185 -0.169279 -0.167247 0.000000 0.000000 0.000000 1.369335 8.856155 -1.049116 -67.329893 -5.682213 -9.044673 -0.888361 -67.764834 -0.078263 19.630398 -8.307659 -1.516215 -0.235905 0.352318 0.000000 0.000000 0.000000 0.000000 0.000000 0.000000 0.000000 12.385488 -14.512374 0.315676 67.345655 -6.446664 -19.092822 2.021179 46.165310 0.003355 -13.795801 12.894579 -1.605647 0.177880 -0.165875 0.000000 0.000000 0.000000 0.000000 0.000000 0.000000 0.000000 
1.662972 17.263294 2.549199 -9.498474 -71.986311 22.210558 2.335956 -2.203542 -7.192249 -0.010345 -2.587583 -3.864562 -5.621506 -2.611295 1.797190 12.312867 -17.266288 -8.788767 -2.246802 -0.163860 -0.243160 0.000000 0.000000 0.000000 1.525168 8.607539 -0.932032 -67.567485 -5.642140 -9.525587 -0.881392 -68.018756 -0.081028 19.718814 -8.181588 -1.501629 -0.234856 0.356901 0.000000 0.000000 0.000000 0.000000 0.000000 0.000000 0.000000 12.244301 -14.513422 0.436121 67.158825 -6.100677 -18.812513 1.990369 46.999555 0.002225 -13.708178 12.807926 -1.585547 0.178566 -0.171284 0.000000 0.000000 0.000000 0.000000 0.000000 0.000000 0.000000 
1.708295 17.276443 2.586325 -11.054988 -73.074170 24.885606 3.205735 -2.202169 -7.456295 0.180222 -2.669209 -3.942843 -5.576815 -2.691064 1.746585 12.286163 -17.241234 -9.086149 -2.220417 -0.157545 -0.323686 0.000000 0.000000 0.000000 1.732130 8.347692 -0.799051 -67.723477 -5.550235 -10.036463 -0.868079 -68.334446 -0.084123 19.808731 -8.020464 -1.480751 -0.234011 0.362015 0.000000 0.000000 0.000000 0.000000 0.000000 0.000000 0.000000 12.059282 -14.440632 0.572616 66.935788 -5.650789 -18.470936 1.954322 47.877974 0.000839 -13.621801 12.701848 -1.563448 0.179180 -0.177511 0.000000 0.000000 0.000000 0.000000 0.000000 0.000000 0.000000 
1.757008 17.288557 2.622191 -12.832308 -74.282579 27.862123 4.051931 -2.184221 -7.687416 0.364313 -2.732342 -4.020633 -5.531434 -2.752606 1.680304 12.270157 -17.161059 -9.385166 -2.188230 -0.150429 -0.408049 0.000000 0.000000 0.000000 2.009117 8.067671 -0.650152 -67.789532 -5.401978 -10.573350 -0.848366 -68.698573 -0.087535 19.896329 -7.828136 -1.454082 -0.233394 0.367716 0.000000 0.000000 0.000000 0.000000 0.000000 0.000000 0.000000 11.843252 -14.296393 0.723919 66.684467 -5.113024 -18.073231 1.912679 48.798232 -0.000818 -13.536756 12.569860 -1.538548 0.179733 -0.184536 0.000000 0.000000 0.000000 0.000000 0.000000 0.000000 0.000000 
1.808893 17.299363 2.656374 -14.865300 -75.585933 31.143747 4.848585 -2.156097 -7.859327 0.536866 -2.779606 -4.092525 -5.486797 -2.798769 1.596828 12.269678 -17.028064 -9.681331 -2.152038 -0.142662 -0.495576 0.000000 0.000000 0.000000 2.365249 7.765622 -0.485219 -67.758064 -5.199396 -11.130050 -0.822942 -69.095280 -0.091214 19.977474 -7.610006 -1.422223 -0.233042 0.374004 0.000000 0.000000 0.000000 0.000000 0.000000 0.000000 0.000000 11.611711 -14.085574 0.887137 66.405891 -4.505455 -17.621995 1.865018 49.764595 -0.002749 -13.454311 12.406086 -1.510448 0.180258 -0.192337 0.000000 0.000000 0.000000 0.000000 0.000000 0.000000 0.000000 
1.863629 17.308766 2.688946 -17.231309 -76.954424 34.774253 5.583416 -2.124423 -7.949930 0.695711 -2.815062 -4.153462 -5.444093 -2.833758 1.495381 12.286843 -16.845932 -9.971039 -2.114082 -0.134447 -0.585634 0.000000 0.000000 0.000000 2.796160 7.443611 -0.304061 -67.621254 -4.945247 -11.701287 -0.793152 -69.511132 -0.095071 20.046952 -7.373353 -1.385975 -0.232974 0.380804 0.000000 0.000000 0.000000 0.000000 0.000000 0.000000 0.000000 11.379636 -13.814070 1.058639 66.092606 -3.848142 -17.120315 1.811209 50.785154 -0.004957 -13.376715 12.208061 -1.479049 0.180811 -0.200878 0.000000 0.000000 0.000000 0.000000 0.000000 0.000000 0.000000 
1.920424 17.316907 2.720597 -20.067083 -78.352548 38.866848 6.259073 -2.094902 -7.949043 0.841845 -2.843665 -4.200385 -5.404161 -2.862578 1.376777 12.320926 -16.619842 -10.251852 -2.076811 -0.126023 -0.677697 0.000000 0.000000 0.000000 3.283381 7.108298 -0.106639 -67.372350 -4.642289 -12.283281 -0.760942 -69.936787 -0.098975 20.099453 -7.125556 -1.346332 -0.233206 0.387941 0.000000 0.000000 0.000000 0.000000 0.000000 0.000000 0.000000 11.159899 -13.489047 1.234288 65.730955 -3.159787 -16.571971 1.751583 51.870324 -0.007416 -13.306094 11.976339 -1.444751 0.181472 -0.210108 0.000000 0.000000 0.000000 0.000000 0.000000 0.000000 0.000000 
